<mxfile host="test.draw.io" modified="2023-06-12T08:09:37.262Z" agent="Mozilla/5.0 (Macintosh; Intel Mac OS X 10_15_7) AppleWebKit/537.36 (KHTML, like Gecko) Chrome/114.0.0.0 Safari/537.36" etag="R462wzXSMFjCKiXxJMWp" version="@DRAWIO-VERSION@" type="github">
  <diagram name="Page-1" id="mVWutYJOo60maFYnyOzw">
    <mxGraphModel dx="1152" dy="597" grid="0" gridSize="10" guides="1" tooltips="1" connect="1" arrows="1" fold="1" page="0" pageScale="1" pageWidth="850" pageHeight="1100" math="0" shadow="0">
      <root>
        <mxCell id="0" />
        <mxCell id="1" parent="0" />
        <mxCell id="t2RPKfDIb09O14B1s3YX-1" value="" style="ellipse;shape=cloud;whiteSpace=wrap;html=1;fontSize=16;" vertex="1" parent="1">
          <mxGeometry x="140" y="160" width="120" height="80" as="geometry" />
        </mxCell>
      </root>
    </mxGraphModel>
  </diagram>
</mxfile>
